<svg viewBox="0 0 100 100" xmlns="http://www.w3.org/2000/svg">
  <defs>
    <!-- Dragon gradient -->
    <linearGradient id="dragonBody" x1="0%" y1="0%" x2="0%" y2="100%">
      <stop offset="0%" style="stop-color:#90EE90;stop-opacity:1" />
      <stop offset="100%" style="stop-color:#32CD32;stop-opacity:1" />
    </linearGradient>
    
    <!-- Dragon belly gradient -->
    <linearGradient id="dragonBelly" x1="0%" y1="0%" x2="0%" y2="100%">
      <stop offset="0%" style="stop-color:#FFFACD;stop-opacity:1" />
      <stop offset="100%" style="stop-color:#F5DEB3;stop-opacity:1" />
    </linearGradient>
  </defs>
  
  <!-- Dragon body -->
  <ellipse cx="50" cy="60" rx="18" ry="12" fill="url(#dragonBody)" />
  
  <!-- Dragon belly -->
  <ellipse cx="50" cy="62" rx="12" ry="9" fill="url(#dragonBelly)" />
  
  <!-- Dragon head -->
  <circle cx="50" cy="45" r="10" fill="url(#dragonBody)" />
  
  <!-- Dragon eyes -->
  <circle cx="47" cy="42" r="1.5" fill="#32CD32" />
  <circle cx="53" cy="42" r="1.5" fill="#32CD32" />
  <!-- Winking right eye -->
  <path d="M 51 42 Q 52.5 43 54 42" stroke="#32CD32" stroke-width="1" fill="none" />
  
  <!-- Dragon mouth -->
  <path d="M 45 48 Q 50 50 55 48" stroke="#32CD32" stroke-width="1" fill="none" />
  
  <!-- Dragon fangs -->
  <polygon points="48,48 49,51 50,48" fill="white" />
  <polygon points="50,48 51,51 52,48" fill="white" />
  
  <!-- Dragon wings -->
  <ellipse cx="40" cy="52" rx="6" ry="4" fill="#D2691E" transform="rotate(-20 40 52)" />
  <ellipse cx="60" cy="52" rx="6" ry="4" fill="#D2691E" transform="rotate(20 60 52)" />
  
  <!-- Dragon tail -->
  <path d="M 32 60 Q 25 65 20 62" stroke="url(#dragonBody)" stroke-width="4" fill="none" stroke-linecap="round" />
  
  <!-- Dragon arms -->
  <ellipse cx="42" cy="58" rx="3" ry="6" fill="url(#dragonBody)" transform="rotate(-20 42 58)" />
  <ellipse cx="58" cy="58" rx="3" ry="6" fill="url(#dragonBody)" transform="rotate(20 58 58)" />
  
  <!-- Jester hat -->
  <g fill="#FFD700">
    <polygon points="50,35 45,30 50,28 55,30" fill="#FF0000" />
    <polygon points="50,35 47.5,30 50,28 52.5,30" fill="#0000FF" />
    <polygon points="50,35 46,30 50,28 54,30" fill="#FFFF00" />
  </g>
  
  <!-- Hat bells -->
  <circle cx="45" cy="30" r="1" fill="#FFD700" />
  <circle cx="50" cy="28" r="1" fill="#FFD700" />
  <circle cx="55" cy="30" r="1" fill="#FFD700" />
</svg>